<svg width="103" height="74" viewBox="0 0 103 74" fill="none" xmlns="http://www.w3.org/2000/svg">
<path d="M33.6777 28.207C36.2506 28.028 38.2418 27.9444 39.8145 28.1514C41.337 28.3518 42.0323 28.7718 42.4277 29.2461C42.8597 29.7643 43.3926 30.8981 43.3926 33.4795C43.3925 43.5205 35.252 51.6602 25.2109 51.6602C15.17 51.66 7.0304 43.5204 7.03027 33.4795C7.03027 30.8982 7.56221 29.7643 7.99414 29.2461C8.38957 28.7717 9.08558 28.3518 10.6084 28.1514C12.1809 27.9444 14.1716 28.028 16.7441 28.207C19.2175 28.3792 22.148 28.6308 25.2109 28.6309C28.2739 28.6309 31.2043 28.3792 33.6777 28.207Z" fill="white" stroke="black" stroke-width="6.06035"/>
<path d="M85.7967 28.8079C88.3696 28.6288 90.3608 28.5452 91.9334 28.7522C93.456 28.9526 94.1513 29.3726 94.5467 29.8469C94.9787 30.3651 95.5116 31.4989 95.5116 34.0803C95.5114 44.1213 87.371 52.261 77.3299 52.261C67.289 52.2608 59.1494 44.1212 59.1493 34.0803C59.1493 31.4991 59.6812 30.3652 60.1131 29.8469C60.5086 29.3725 61.2046 28.9527 62.7274 28.7522C64.2999 28.5452 66.2906 28.6288 68.8631 28.8079C71.3365 28.98 74.267 29.2317 77.3299 29.2317C80.3929 29.2317 83.3233 28.98 85.7967 28.8079Z" fill="white" stroke="black" stroke-width="6.06035"/>
<circle cx="17.9388" cy="37.1155" r="11.5147" fill="black"/>
<circle cx="71.2699" cy="37.7267" r="11.5147" fill="black"/>
</svg>
